#N canvas 199 106 1424 635 10;
#X obj 20 71 netreceive -u -b;
#X msg 20 48 listen 9000;
#X obj 20 94 oscparse;
#X obj 20 116 list trim;
#X obj 19 25 bng 15 250 50 0 empty empty empty 17 7 0 10 -262144 -1
-1;
#X obj 19 3 loadbang;
#X floatatom 369 265 5 0 0 0 - - -, f 5;
#X floatatom 437 264 5 0 0 0 - - -, f 5;
#X obj 20 138 route accelerometer gyroscope magneticfield light proximity
rotationvector gravity linearacceleration orientation, f 150;
#X floatatom 20 205 5 0 0 0 - - -, f 5;
#X floatatom 60 205 5 0 0 0 - - -, f 5;
#X floatatom 101 205 5 0 0 0 - - -, f 5;
#X obj 136 176 route X Y Z, f 17;
#X floatatom 147 205 5 0 0 0 - - -, f 5;
#X floatatom 169 205 5 0 0 0 - - -, f 5;
#X floatatom 202 205 5 0 0 0 - - -, f 5;
#X obj 252 176 route X Y Z, f 17;
#X floatatom 252 205 5 0 0 0 - - -, f 5;
#X floatatom 285 205 5 0 0 0 - - -, f 5;
#X floatatom 318 205 5 0 0 0 - - -, f 5;
#X floatatom 521 205 5 0 0 0 - - -, f 5;
#X floatatom 554 205 5 0 0 0 - - -, f 5;
#X floatatom 587 205 5 0 0 0 - - -, f 5;
#X obj 521 176 route X Y Z cos, f 17;
#X obj 666 176 route X Y Z, f 17;
#X floatatom 666 205 5 0 0 0 - - -, f 5;
#X floatatom 699 205 5 0 0 0 - - -, f 5;
#X floatatom 732 205 5 0 0 0 - - -, f 5;
#X floatatom 619 205 5 0 0 0 - - -, f 5;
#X obj 787 176 route X Y Z, f 17;
#X floatatom 787 205 5 0 0 0 - - -, f 5;
#X floatatom 820 205 5 0 0 0 - - -, f 5;
#X floatatom 853 205 5 0 0 0 - - -, f 5;
#X obj 919 176 route X Y Z, f 17;
#X floatatom 919 205 5 0 0 0 - - -, f 5;
#X floatatom 952 205 5 0 0 0 - - -, f 5;
#X floatatom 985 205 5 0 0 0 - - -, f 5;
#X text 32 156 accelerometer;
#X text 141 155 gyroscope;
#X obj 20 138 route accelerometer gyroscope magneticfield light proximity
rotationvector gravity linearacceleration orientation, f 150;
#X text 252 156 magneticfield;
#X text 367 239 light;
#X text 412 239 proximity;
#X text 560 159 rotationvector;
#X text 786 160 linearacceleration;
#X text 693 157 gravity;
#X text 945 156 orientation;
#X floatatom 661 560 5 0 0 0 - - -, f 5;
#X floatatom 694 560 5 0 0 0 - - -, f 5;
#X obj 661 531 route X Y, f 10;
#X floatatom 749 559 5 0 0 0 - - -, f 5;
#X floatatom 782 559 5 0 0 0 - - -, f 5;
#X obj 749 530 route X Y, f 10;
#X floatatom 837 559 5 0 0 0 - - -, f 5;
#X floatatom 870 559 5 0 0 0 - - -, f 5;
#X obj 837 530 route X Y, f 10;
#X floatatom 925 559 5 0 0 0 - - -, f 5;
#X floatatom 958 559 5 0 0 0 - - -, f 5;
#X obj 925 530 route X Y, f 10;
#X floatatom 1013 559 5 0 0 0 - - -, f 5;
#X floatatom 1046 559 5 0 0 0 - - -, f 5;
#X obj 1013 530 route X Y, f 10;
#X floatatom 1101 559 5 0 0 0 - - -, f 5;
#X floatatom 1134 559 5 0 0 0 - - -, f 5;
#X obj 1101 530 route X Y, f 10;
#X floatatom 1189 559 5 0 0 0 - - -, f 5;
#X floatatom 1222 559 5 0 0 0 - - -, f 5;
#X obj 1189 530 route X Y, f 10;
#X floatatom 1277 559 5 0 0 0 - - -, f 5;
#X floatatom 1310 559 5 0 0 0 - - -, f 5;
#X obj 1277 530 route X Y, f 10;
#X obj 1296 608 print wtf;
#X text 757 512 finger 2;
#X text 838 510 finger 3;
#X text 670 512 finger 1;
#X text 930 512 finger 4;
#X text 1104 510 finger 6;
#X text 1017 510 finger 5;
#X text 1191 508 finger 7;
#X text 1280 509 finger 8;
#X obj 661 485 route touch1 touch2 touch3 touch4 touch5 touch6 touch7
touch8, f 101;
#X obj 20 175 unpack f f f;
#X connect 0 0 2 0;
#X connect 1 0 0 0;
#X connect 2 0 3 0;
#X connect 3 0 8 0;
#X connect 4 0 1 0;
#X connect 5 0 4 0;
#X connect 8 0 81 0;
#X connect 8 1 12 0;
#X connect 8 2 16 0;
#X connect 8 3 6 0;
#X connect 8 4 7 0;
#X connect 8 5 23 0;
#X connect 8 6 24 0;
#X connect 8 7 29 0;
#X connect 8 8 33 0;
#X connect 8 9 80 0;
#X connect 12 0 13 0;
#X connect 12 1 14 0;
#X connect 12 2 15 0;
#X connect 16 0 17 0;
#X connect 16 1 18 0;
#X connect 16 2 19 0;
#X connect 23 0 20 0;
#X connect 23 1 21 0;
#X connect 23 2 22 0;
#X connect 23 3 28 0;
#X connect 24 0 25 0;
#X connect 24 1 26 0;
#X connect 24 2 27 0;
#X connect 29 0 30 0;
#X connect 29 1 31 0;
#X connect 29 2 32 0;
#X connect 33 0 34 0;
#X connect 33 1 35 0;
#X connect 33 2 36 0;
#X connect 49 0 47 0;
#X connect 49 1 48 0;
#X connect 52 0 50 0;
#X connect 52 1 51 0;
#X connect 55 0 53 0;
#X connect 55 1 54 0;
#X connect 58 0 56 0;
#X connect 58 1 57 0;
#X connect 61 0 59 0;
#X connect 61 1 60 0;
#X connect 64 0 62 0;
#X connect 64 1 63 0;
#X connect 67 0 65 0;
#X connect 67 1 66 0;
#X connect 70 0 68 0;
#X connect 70 1 69 0;
#X connect 80 0 49 0;
#X connect 80 1 52 0;
#X connect 80 2 55 0;
#X connect 80 3 58 0;
#X connect 80 4 61 0;
#X connect 80 5 64 0;
#X connect 80 6 67 0;
#X connect 80 7 70 0;
#X connect 80 8 71 0;
#X connect 81 0 9 0;
#X connect 81 1 10 0;
#X connect 81 2 11 0;
