#N canvas 84 369 976 228 10;
#X obj 20 71 netreceive -u -b;
#X msg 20 48 listen 9000;
#X obj 20 94 oscparse;
#X obj 20 116 list trim;
#X obj 19 25 bng 15 250 50 0 empty empty empty 17 7 0 10 -262144 -1
-1;
#X obj 19 3 loadbang;
#X floatatom 348 205 5 0 0 0 - - -, f 5;
#X floatatom 418 204 5 0 0 0 - - -, f 5;
#X obj 20 138 route accelerometer gyroscope magneticfield light proximity
rotationvector gravity linearacceleration orientation, f 150;
#X obj 20 176 route X Y Z, f 17;
#X floatatom 20 205 5 0 0 0 - - -, f 5;
#X floatatom 53 205 5 0 0 0 - - -, f 5;
#X floatatom 86 205 5 0 0 0 - - -, f 5;
#X obj 127 176 route X Y Z, f 17;
#X floatatom 127 205 5 0 0 0 - - -, f 5;
#X floatatom 160 205 5 0 0 0 - - -, f 5;
#X floatatom 193 205 5 0 0 0 - - -, f 5;
#X obj 233 176 route X Y Z, f 17;
#X floatatom 233 205 5 0 0 0 - - -, f 5;
#X floatatom 266 205 5 0 0 0 - - -, f 5;
#X floatatom 299 205 5 0 0 0 - - -, f 5;
#X floatatom 457 205 5 0 0 0 - - -, f 5;
#X floatatom 490 205 5 0 0 0 - - -, f 5;
#X floatatom 523 205 5 0 0 0 - - -, f 5;
#X obj 457 176 route X Y Z cos, f 17;
#X obj 602 176 route X Y Z, f 17;
#X floatatom 602 205 5 0 0 0 - - -, f 5;
#X floatatom 635 205 5 0 0 0 - - -, f 5;
#X floatatom 668 205 5 0 0 0 - - -, f 5;
#X floatatom 555 205 5 0 0 0 - - -, f 5;
#X obj 723 176 route X Y Z, f 17;
#X floatatom 723 205 5 0 0 0 - - -, f 5;
#X floatatom 756 205 5 0 0 0 - - -, f 5;
#X floatatom 789 205 5 0 0 0 - - -, f 5;
#X obj 855 176 route X Y Z, f 17;
#X floatatom 855 205 5 0 0 0 - - -, f 5;
#X floatatom 888 205 5 0 0 0 - - -, f 5;
#X floatatom 921 205 5 0 0 0 - - -, f 5;
#X text 32 156 accelerometer;
#X text 132 155 gyroscope;
#X obj 20 138 route accelerometer gyroscope magneticfield light proximity
rotationvector gravity linearacceleration orientation, f 150;
#X text 233 156 magneticfield;
#X text 346 179 light;
#X text 391 179 proximity;
#X text 496 159 rotationvector;
#X text 722 160 linearacceleration;
#X text 629 157 gravity;
#X text 881 156 orientation;
#X connect 0 0 2 0;
#X connect 1 0 0 0;
#X connect 2 0 3 0;
#X connect 3 0 8 0;
#X connect 4 0 1 0;
#X connect 5 0 4 0;
#X connect 8 0 9 0;
#X connect 8 1 13 0;
#X connect 8 2 17 0;
#X connect 8 3 6 0;
#X connect 8 4 7 0;
#X connect 8 5 24 0;
#X connect 8 6 25 0;
#X connect 8 7 30 0;
#X connect 8 8 34 0;
#X connect 9 0 10 0;
#X connect 9 1 11 0;
#X connect 9 2 12 0;
#X connect 13 0 14 0;
#X connect 13 1 15 0;
#X connect 13 2 16 0;
#X connect 17 0 18 0;
#X connect 17 1 19 0;
#X connect 17 2 20 0;
#X connect 24 0 21 0;
#X connect 24 1 22 0;
#X connect 24 2 23 0;
#X connect 24 3 29 0;
#X connect 25 0 26 0;
#X connect 25 1 27 0;
#X connect 25 2 28 0;
#X connect 30 0 31 0;
#X connect 30 1 32 0;
#X connect 30 2 33 0;
#X connect 34 0 35 0;
#X connect 34 1 36 0;
#X connect 34 2 37 0;
