#N canvas 199 111 1424 635 10;
#X obj 20 71 netreceive -u -b;
#X obj 20 94 oscparse;
#X obj 20 116 list trim;
#X obj 19 25 bng 15 250 50 0 empty empty empty 17 7 0 10 #fcfcfc #000000
#000000;
#X obj 19 3 loadbang;
#X floatatom 289 285 5 0 0 0 - - - 0;
#X floatatom 378 284 5 0 0 0 - - - 0;
#X floatatom 20 205 5 0 0 0 - - - 0;
#X floatatom 60 205 5 0 0 0 - - - 0;
#X floatatom 101 205 5 0 0 0 - - - 0;
#X floatatom 199 212 5 0 0 0 - - - 0;
#X floatatom 239 212 5 0 0 0 - - - 0;
#X floatatom 280 211 5 0 0 0 - - - 0;
#X floatatom 468 205 5 0 0 0 - - - 0;
#X floatatom 501 205 5 0 0 0 - - - 0;
#X floatatom 534 205 5 0 0 0 - - - 0;
#X floatatom 558 326 5 0 0 0 - - - 0;
#X floatatom 591 326 5 0 0 0 - - - 0;
#X floatatom 624 326 5 0 0 0 - - - 0;
#X floatatom 566 205 5 0 0 0 - - - 0;
#X floatatom 648 205 5 0 0 0 - - - 0;
#X floatatom 681 205 5 0 0 0 - - - 0;
#X floatatom 714 205 5 0 0 0 - - - 0;
#X floatatom 737 325 5 0 0 0 - - - 0;
#X floatatom 770 325 5 0 0 0 - - - 0;
#X floatatom 803 325 5 0 0 0 - - - 0;
#X text 32 156 accelerometer;
#X text 96 255 gyroscope;
#X text 199 163 magneticfield;
#X text 287 259 light;
#X text 353 259 proximity;
#X text 467 159 rotationvector;
#X text 647 160 linearacceleration;
#X text 585 278 gravity;
#X text 735 279 orientation;
#X floatatom 661 560 5 0 0 3 X - - 0;
#X floatatom 694 560 5 0 0 3 Y - - 0;
#X floatatom 749 559 5 0 0 0 - - - 0;
#X floatatom 782 559 5 0 0 0 - - - 0;
#X floatatom 837 559 5 0 0 0 - - - 0;
#X floatatom 870 559 5 0 0 0 - - - 0;
#X floatatom 925 559 5 0 0 0 - - - 0;
#X floatatom 958 559 5 0 0 0 - - - 0;
#X floatatom 1013 559 5 0 0 0 - - - 0;
#X floatatom 1046 559 5 0 0 0 - - - 0;
#X floatatom 1101 559 5 0 0 0 - - - 0;
#X floatatom 1134 559 5 0 0 0 - - - 0;
#X floatatom 1189 559 5 0 0 0 - - - 0;
#X floatatom 1222 559 5 0 0 0 - - - 0;
#X floatatom 1277 559 5 0 0 0 - - - 0;
#X floatatom 1310 559 5 0 0 0 - - - 0;
#X obj 1296 608 print wtf;
#X text 757 512 finger 2;
#X text 838 510 finger 3;
#X text 670 512 finger 1;
#X text 930 512 finger 4;
#X text 1104 510 finger 6;
#X text 1017 510 finger 5;
#X text 1191 508 finger 7;
#X text 1280 509 finger 8;
#X obj 661 485 route touch1 touch2 touch3 touch4 touch5 touch6 touch7
touch8, f 101;
#X obj 20 175 unpack f f f;
#X obj 199 183 unpack f f f;
#X floatatom 109 314 5 0 0 0 - - - 0;
#X floatatom 149 314 5 0 0 0 - - - 0;
#X floatatom 190 314 5 0 0 0 - - - 0;
#X obj 109 284 unpack f f f;
#X obj 468 176 unpack f f f f, f 15;
#X obj 558 297 unpack f f f, f 13;
#X obj 648 176 unpack f f f;
#X obj 738 296 unpack f f f;
#X obj 661 531 unpack f f;
#X obj 749 530 unpack f f;
#X obj 837 530 unpack f f;
#X obj 925 530 unpack f f;
#X obj 1013 530 unpack f f;
#X obj 1101 530 unpack f f;
#X obj 1189 530 unpack f f;
#X obj 1277 530 unpack f f;
#X floatatom 794 214 5 0 0 0 - - - 0;
#X text 788 192 inclination;
#X obj 20 139 route accelerometer gyroscope magneticfield light proximity
rotationvector gravity linearacceleration orientation inclination location
, f 150;
#X obj 1034 241 unpack f f f f f;
#X floatatom 1004 264 5 0 0 3 latitude - - 0;
#X floatatom 1039 305 5 0 0 3 longitude - - 0;
#X floatatom 1074 266 5 0 0 3 altitude - - 0;
#X floatatom 1109 307 5 0 0 3 bearing - - 0;
#X floatatom 1145 267 5 0 0 3 accuracy - - 0;
#X text 1032 222 location;
#X msg 20 48 listen 9000;
#X connect 0 0 1 0;
#X connect 1 0 2 0;
#X connect 2 0 81 0;
#X connect 3 0 89 0;
#X connect 4 0 3 0;
#X connect 60 0 71 0;
#X connect 60 1 72 0;
#X connect 60 2 73 0;
#X connect 60 3 74 0;
#X connect 60 4 75 0;
#X connect 60 5 76 0;
#X connect 60 6 77 0;
#X connect 60 7 78 0;
#X connect 60 8 51 0;
#X connect 61 0 7 0;
#X connect 61 1 8 0;
#X connect 61 2 9 0;
#X connect 62 0 10 0;
#X connect 62 1 11 0;
#X connect 62 2 12 0;
#X connect 66 0 63 0;
#X connect 66 1 64 0;
#X connect 66 2 65 0;
#X connect 67 0 13 0;
#X connect 67 1 14 0;
#X connect 67 2 15 0;
#X connect 67 3 19 0;
#X connect 68 0 16 0;
#X connect 68 1 17 0;
#X connect 68 2 18 0;
#X connect 69 0 20 0;
#X connect 69 1 21 0;
#X connect 69 2 22 0;
#X connect 70 0 23 0;
#X connect 70 1 24 0;
#X connect 70 2 25 0;
#X connect 71 0 35 0;
#X connect 71 1 36 0;
#X connect 72 0 37 0;
#X connect 72 1 38 0;
#X connect 73 0 39 0;
#X connect 73 1 40 0;
#X connect 74 0 41 0;
#X connect 74 1 42 0;
#X connect 75 0 43 0;
#X connect 75 1 44 0;
#X connect 76 0 45 0;
#X connect 76 1 46 0;
#X connect 77 0 47 0;
#X connect 77 1 48 0;
#X connect 78 0 49 0;
#X connect 78 1 50 0;
#X connect 81 0 61 0;
#X connect 81 1 66 0;
#X connect 81 2 62 0;
#X connect 81 3 5 0;
#X connect 81 4 6 0;
#X connect 81 5 67 0;
#X connect 81 6 68 0;
#X connect 81 7 69 0;
#X connect 81 8 70 0;
#X connect 81 9 79 0;
#X connect 81 10 82 0;
#X connect 81 11 60 0;
#X connect 82 0 83 0;
#X connect 82 1 84 0;
#X connect 82 2 85 0;
#X connect 82 3 86 0;
#X connect 82 4 87 0;
#X connect 89 0 0 0;
