#N canvas 1093 169 771 558 10;
#X obj 144 188 osc/unpackOSC;
#X obj 144 213 osc/pipelist;
#X obj 60 351 l2s;
#X floatatom 60 419 5 0 0 0 - - -, f 5;
#X obj 60 397 f;
#X obj 60 374 s2l;
#X obj 155 352 l2s;
#X floatatom 155 420 5 0 0 0 - - -, f 5;
#X obj 155 398 f;
#X obj 155 375 s2l;
#X obj 234 350 l2s;
#X floatatom 234 418 5 0 0 0 - - -, f 5;
#X obj 234 396 f;
#X obj 234 373 s2l;
#X obj 318 346 l2s;
#X floatatom 318 414 5 0 0 0 - - -, f 5;
#X obj 318 392 f;
#X obj 318 369 s2l;
#X obj 413 355 l2s;
#X floatatom 413 423 5 0 0 0 - - -, f 5;
#X obj 413 401 f;
#X obj 413 378 s2l;
#X obj 492 353 l2s;
#X floatatom 492 421 5 0 0 0 - - -, f 5;
#X obj 492 399 f;
#X obj 492 376 s2l;
#X obj 138 281 osc/routeOSC /X /Y /Z;
#X obj 311 283 osc/routeOSC /X /Y /Z;
#X obj 546 331 l2s;
#X floatatom 546 399 5 0 0 0 - - -, f 5;
#X obj 546 377 f;
#X obj 546 354 s2l;
#X obj 625 329 l2s;
#X floatatom 625 397 5 0 0 0 - - -, f 5;
#X obj 625 375 f;
#X obj 625 352 s2l;
#X obj 143 163 iemnet/udpreceive 9001;
#X obj 144 237 osc/routeOSC /accelerometer /orientation /light /proximity
;
#X connect 0 0 1 0;
#X connect 0 1 1 1;
#X connect 1 0 37 0;
#X connect 2 0 5 0;
#X connect 4 0 3 0;
#X connect 5 0 4 0;
#X connect 6 0 9 0;
#X connect 8 0 7 0;
#X connect 9 0 8 0;
#X connect 10 0 13 0;
#X connect 12 0 11 0;
#X connect 13 0 12 0;
#X connect 14 0 17 0;
#X connect 16 0 15 0;
#X connect 17 0 16 0;
#X connect 18 0 21 0;
#X connect 20 0 19 0;
#X connect 21 0 20 0;
#X connect 22 0 25 0;
#X connect 24 0 23 0;
#X connect 25 0 24 0;
#X connect 26 0 2 0;
#X connect 26 1 6 0;
#X connect 26 2 10 0;
#X connect 27 0 14 0;
#X connect 27 1 18 0;
#X connect 27 2 22 0;
#X connect 28 0 31 0;
#X connect 30 0 29 0;
#X connect 31 0 30 0;
#X connect 32 0 35 0;
#X connect 34 0 33 0;
#X connect 35 0 34 0;
#X connect 36 0 0 0;
#X connect 37 0 26 0;
#X connect 37 1 27 0;
#X connect 37 2 28 0;
#X connect 37 3 32 0;
